<svg id="图层_1" data-name="图层 1" xmlns="http://www.w3.org/2000/svg" viewBox="0 0 1805.61 522.27"><defs><style>.cls-1{fill:#3d986d;}</style></defs><path class="cls-1" d="M171.1,437.72V408.47a60.64,60.64,0,0,1,60.64-60.64h8a7.31,7.31,0,0,0,7.31-7.31V286.37a7.31,7.31,0,0,0-7.31-7.31c-74.14-4-137.63,54.82-137.38,129.41v29.25c0,13.66-26.76,19.88-39.06,22A7.31,7.31,0,0,0,57.2,467v39a7.31,7.31,0,0,0,6.07,7.2c12.3,2.14,39.06,8.37,39.06,22v29.25C102.08,639,165.57,697.9,239.71,693.85a7.31,7.31,0,0,0,7.31-7.31V632.4a7.31,7.31,0,0,0-7.31-7.31h-8a60.64,60.64,0,0,1-60.64-60.64V535.2c0-18.19-10.18-35-20.12-48.73,10-13.7,20.12-30.54,20.12-48.73Z" transform="translate(-57.2 -278.86)"/><path class="cls-1" d="M359.89,544.79V515.54a60.65,60.65,0,0,0-60.65-60.64h-8a7.31,7.31,0,0,1-7.3-7.31V393.45a7.3,7.3,0,0,1,7.3-7.31c74.14-4,137.64,54.83,137.38,129.41V544.8c0,13.66,26.76,19.88,39.07,22a7.32,7.32,0,0,1,6.07,7.21v39a7.32,7.32,0,0,1-6.07,7.21c-12.31,2.14-39.07,8.37-39.07,22v29.25c.26,74.58-63.24,133.46-137.38,129.41a7.31,7.31,0,0,1-7.3-7.31V739.49a7.3,7.3,0,0,1,7.3-7.31h8a60.65,60.65,0,0,0,60.65-60.64V642.29c0-18.19,10.18-35,20.12-48.73-9.95-13.71-20.12-30.54-20.12-48.73Z" transform="translate(-57.2 -278.86)"/><path d="M1783,503.4c18.89-17.15,29.56-23.17,57.84-22h.43a144,144,0,0,1,18.61,2.71,3.75,3.75,0,0,1,2.91,3.71c.07,9.28,0,37,0,45.42a1,1,0,0,1-1.42.91c-17.33-7.24-38.27-6.34-53.67,5.41-18.12,13.1-26.79,37.76-26.87,60.89-.07,15.7,0,74.61,0,102.23a4.26,4.26,0,0,1-4.28,4.26h-44.8a4,4,0,0,1-4.09-3.85c-.72-28.88-.1-185.49-.1-213.65a4.24,4.24,0,0,1,4.23-4.23c12.84-.2,32-.06,44.74,0a4.27,4.27,0,0,1,4.25,4.28v6.86c0,2-.08,4.77,0,6.74,0,.71.47,1.51,1.06,1.12.18-.12.35-.27.54-.41S1782.8,503.56,1783,503.4Z" transform="translate(-57.2 -278.86)"/><path d="M1403.6,583s0,0,0,0c16.75-17,76.59-77.23,93.06-93.63a2.53,2.53,0,0,0-1.73-4.17c-14.76,0-49,0-57.4,0a4.34,4.34,0,0,0-3.19,1.38c-16.23,17.15-66.44,65.36-70.72,68.59-.22.16-.3.06-.3-.2-.07-39.85.15-196.4,0-221.36a3.33,3.33,0,0,0-3.5-3.39c-11.51-.06-35.35.07-45.34.06a4.3,4.3,0,0,0-4.38,4.23c-.11,37.08-.24,292.78-.13,368.4a4.08,4.08,0,0,0,4.19,4.08c9.72,0,28.09-.09,38.36,0h0c.09,0,3.62,0,6.72,0a4,4,0,0,0,4.06-4.14c-.12-15.52-.62-70.37.22-84.5.1-2,1.62-2.64,3.36-1.65,22.29,12.91,58.36,40.58,78.79,89.07.34.68.49,1.25.68,1.69a1.63,1.63,0,0,0,1.63.76c6.67,0,38.61,0,51.64,0a4,4,0,0,0,3.81-5.28c-20.77-62-68.89-100.21-99.67-119.77a.1.1,0,0,1,0-.07l-.05-.08Z" transform="translate(-57.2 -278.86)"/><path d="M870.35,512.92c31-33.58,86.42-39.14,127.54-22.78,45,18.34,62.88,64.9,60.44,113.12a4.22,4.22,0,0,1-4.23,4H898.72a1.72,1.72,0,0,0-1.89,2c2.34,27.57,21.2,50.61,49.17,53.57,13.82,1.85,30.52-.8,40.37-7.87a77.31,77.31,0,0,0,8.85-7.53,4.39,4.39,0,0,1,3.08-1.28h60.31c.77,0,1.09.69.77,1.39-31.29,51.6-77.28,69-135.38,58.36-53.1-11.2-84.72-56.26-83.16-113.11C841,563.5,850.52,533.52,870.35,512.92Zm82.14,14.35c-17.76-.38-35.11,7.66-45,22.59h0l-.2.3A56.11,56.11,0,0,0,902,560.32a3.89,3.89,0,0,0,3.79,5.23c8.39,0,17.91,0,30,0h65.43a1.39,1.39,0,0,0,1.49-1.88C995.82,541,978.55,527.27,952.49,527.27Z" transform="translate(-57.2 -278.86)"/><path d="M1099.54,512.92c31-33.58,86.4-39.14,127.54-22.78,45,18.34,62.86,64.9,60.42,113.12a4.19,4.19,0,0,1-4.21,4H1127.9a1.71,1.71,0,0,0-1.88,2c2.33,27.57,21.2,50.61,49.16,53.57,13.82,1.85,30.51-.8,40.37-7.87a78.29,78.29,0,0,0,8.86-7.53,4.37,4.37,0,0,1,3.06-1.28h60.31c.79,0,1.11.69.79,1.39-31.3,51.6-77.27,69-135.4,58.35-53.08-11.19-84.72-56.25-83.14-113.1C1070.14,563.49,1079.7,533.52,1099.54,512.92Zm82.13,14.35c-17.76-.38-35.11,7.66-45.06,22.59h0l-.19.3a54.89,54.89,0,0,0-5.29,10.16,3.9,3.9,0,0,0,3.81,5.21c8.39,0,17.91,0,30,0h65.42a1.4,1.4,0,0,0,1.5-1.88C1225,541,1207.72,527.27,1181.67,527.27Z" transform="translate(-57.2 -278.86)"/><path d="M1517,512.92c31-33.58,86.43-39.14,127.55-22.78,45,18.34,62.88,64.91,60.44,113.12a4.21,4.21,0,0,1-4.22,4H1545.42a1.72,1.72,0,0,0-1.9,2c2.35,27.57,21.2,50.61,49.16,53.57,13.84,1.85,30.53-.8,40.37-7.87a76.57,76.57,0,0,0,8.86-7.53,4.4,4.4,0,0,1,3.08-1.28h60.31a.89.89,0,0,1,.77,1.39c-31.28,51.6-77.28,69-135.38,58.35-53.1-11.19-84.72-56.25-83.16-113.1C1487.64,563.49,1497.2,533.52,1517,512.92Zm82.15,14.35c-17.75-.37-35.1,7.66-45,22.59h0l-.2.3a56.66,56.66,0,0,0-5.26,10.16,3.88,3.88,0,0,0,3.79,5.21c8.4,0,17.92,0,30,0h65.44a1.39,1.39,0,0,0,1.48-1.88C1642.51,541,1625.24,527.27,1599.18,527.27Z" transform="translate(-57.2 -278.86)"/><path d="M723.64,355.52c39.06-.48,87,26.13,99.39,72.93a4.1,4.1,0,0,1-4,5.1H776.15a4.33,4.33,0,0,1-3.59-1.93c-5.37-8-11-14.87-19.24-19.78-17.92-10.35-49.78-9.1-66.39,5.55-9.12,7.42-14,17-14.18,28.14-.2,16.78,11.68,29,35.64,39.18,5.61,2.29,34,13.21,38.73,15.08,0,0,0,0,0,0h0l.22.08c43.42,17.67,72.89,37.64,81.88,80.27,6,32.27-2.59,68.07-25.56,91.9C752.35,728.91,642.6,719.3,612,647.18a140.64,140.64,0,0,1-10.38-32.92,4.18,4.18,0,0,1,4.15-4.91H655a4.35,4.35,0,0,1,4.24,3.48c2.5,11.8,5.72,19.81,11.49,26.69,24.95,31,83.3,25.6,99.63-11.86,8.08-18.16,6.84-42-6.85-56.88-18.2-20-47.73-27.21-72.57-37.85-56.21-21.12-88.26-63.95-68.8-117.2C637.85,376.75,682.09,354.86,723.64,355.52Z" transform="translate(-57.2 -278.86)"/></svg>