<?xml version="1.0" encoding="utf-8"?>
<!-- Generator: Adobe Illustrator 25.0.0, SVG Export Plug-In . SVG Version: 6.00 Build 0)  -->
<svg version="1.1" id="图层_1" xmlns="http://www.w3.org/2000/svg" xmlns:xlink="http://www.w3.org/1999/xlink" x="0px" y="0px"
	 viewBox="0 0 1805.6 522.3" style="enable-background:new 0 0 1805.6 522.3;" xml:space="preserve">
<style type="text/css">
	.st0{fill:#FFFFFF;}
</style>
<path class="st0" d="M113.9,158.9v-29.2c0-33.5,27.1-60.6,60.6-60.6h8c4,0,7.3-3.3,7.3-7.3V7.5c0-4-3.3-7.3-7.3-7.3
	C108.4-3.8,44.9,55,45.2,129.6v29.2c0,13.7-26.8,19.9-39.1,22c-3.5,0.6-6.1,3.7-6.1,7.3v39c0,3.6,2.6,6.6,6.1,7.2
	c12.3,2.1,39.1,8.4,39.1,22v29.2C44.9,360.1,108.4,419,182.5,415c4,0,7.3-3.3,7.3-7.3v-54.1c0-4-3.3-7.3-7.3-7.3h-8
	c-33.5,0-60.6-27.1-60.6-60.6l0,0v-29.2c0-18.2-10.2-35-20.1-48.7C103.8,193.9,113.9,177.1,113.9,158.9L113.9,158.9z"/>
<path class="st0" d="M302.7,265.9v-29.2c0-33.5-27.2-60.6-60.6-60.6h-8c-4,0-7.3-3.3-7.3-7.3v-54.1c0-4,3.3-7.3,7.3-7.3c0,0,0,0,0,0
	c74.1-4,137.6,54.8,137.4,129.4v29.2c0,13.7,26.8,19.9,39.1,22c3.5,0.6,6.1,3.7,6.1,7.2v39c0,3.6-2.6,6.6-6.1,7.2
	c-12.3,2.1-39.1,8.4-39.1,22v29.2c0.3,74.6-63.2,133.5-137.4,129.4c-4,0-7.3-3.3-7.3-7.3v-54.1c0-4,3.3-7.3,7.3-7.3c0,0,0,0,0,0h8
	c33.5,0,60.6-27.1,60.6-60.6v-29.2c0-18.2,10.2-35,20.1-48.7C312.9,301,302.7,284.2,302.7,265.9L302.7,265.9z"/>
<path class="st0" d="M1725.8,224.5c18.9-17.1,29.6-23.2,57.8-22h0.4c6.3,0.5,12.5,1.4,18.6,2.7c1.7,0.4,2.9,1.9,2.9,3.7
	c0.1,9.3,0,37,0,45.4c0,0.6-0.4,1-1,1c-0.1,0-0.3,0-0.4-0.1c-17.3-7.2-38.3-6.3-53.7,5.4c-18.1,13.1-26.8,37.8-26.9,60.9
	c-0.1,15.7,0,74.6,0,102.2c0,2.4-1.9,4.3-4.3,4.3c0,0,0,0,0,0h-44.8c-2.2,0.1-4-1.7-4.1-3.8c-0.7-28.9-0.1-185.5-0.1-213.6
	c0-2.3,1.9-4.2,4.2-4.2c12.8-0.2,32-0.1,44.7,0c2.4,0,4.3,1.9,4.2,4.3v6.9c0,2-0.1,4.8,0,6.7c0,0.7,0.5,1.5,1.1,1.1
	c0.2-0.1,0.3-0.3,0.5-0.4S1725.6,224.7,1725.8,224.5z"/>
<path class="st0" d="M1346.4,304.1L1346.4,304.1c16.8-17,76.6-77.2,93.1-93.6c0.9-1.1,0.8-2.7-0.3-3.6c-0.4-0.4-0.9-0.6-1.5-0.6
	c-14.8,0-49,0-57.4,0c-1.2,0-2.4,0.5-3.2,1.4c-16.2,17.1-66.4,65.4-70.7,68.6c-0.2,0.2-0.3,0.1-0.3-0.2c-0.1-39.8,0.2-196.4,0-221.4
	c0-1.8-1.4-3.4-3.3-3.4c-0.1,0-0.2,0-0.2,0c-11.5-0.1-35.3,0.1-45.3,0.1c-2.4,0-4.3,1.8-4.4,4.2c0,0,0,0,0,0
	c-0.1,37.1-0.2,292.8-0.1,368.4c0,2.3,1.8,4.1,4.1,4.1c0,0,0.1,0,0.1,0c9.7,0,28.1-0.1,38.4,0l0,0c0.1,0,3.6,0,6.7,0
	c2.2,0,4-1.7,4.1-3.9c0-0.1,0-0.1,0-0.2c-0.1-15.5-0.6-70.4,0.2-84.5c0.1-2,1.6-2.6,3.4-1.7c22.3,12.9,58.4,40.6,78.8,89.1
	c0.3,0.7,0.5,1.2,0.7,1.7c0.3,0.6,1,0.9,1.6,0.8c6.7,0,38.6,0,51.6,0c2.2,0,4-1.8,4-4c0-0.4-0.1-0.9-0.2-1.3
	c-20.8-62-68.9-100.2-99.7-119.8c0,0,0,0,0-0.1l-0.1-0.1L1346.4,304.1z"/>
<path class="st0" d="M813.1,234.1c31-33.6,86.4-39.1,127.5-22.8c45,18.3,62.9,64.9,60.4,113.1c-0.1,2.2-2,4-4.2,4H841.5
	c-0.9-0.1-1.8,0.6-1.9,1.5c0,0.2,0,0.3,0,0.5C842,358,860.8,381,888.8,384c13.8,1.8,30.5-0.8,40.4-7.9c3.1-2.3,6.1-4.8,8.8-7.5
	c0.8-0.8,1.9-1.3,3.1-1.3h60.3c0.8,0,1.1,0.7,0.8,1.4c-31.3,51.6-77.3,69-135.4,58.4c-53.1-11.2-84.7-56.3-83.2-113.1
	C783.8,284.6,793.3,254.7,813.1,234.1z M895.3,248.4c-17.8-0.4-35.1,7.7-45,22.6l0,0l-0.2,0.3c-2.1,3.2-3.9,6.6-5.3,10.2
	c-0.7,2,0.3,4.3,2.3,5c0.5,0.2,1,0.3,1.5,0.2c8.4,0,17.9,0,30,0H944c0.8,0.1,1.5-0.4,1.6-1.2c0-0.2,0-0.5-0.1-0.7
	C938.6,262.1,921.3,248.4,895.3,248.4L895.3,248.4z"/>
<path class="st0" d="M1042.3,234.1c31-33.6,86.4-39.1,127.5-22.8c45,18.3,62.9,64.9,60.4,113.1c-0.1,2.2-2,4-4.2,4h-155.4
	c-0.9-0.1-1.8,0.6-1.9,1.5c0,0.2,0,0.3,0,0.5c2.3,27.6,21.2,50.6,49.2,53.6c13.8,1.8,30.5-0.8,40.4-7.9c3.1-2.3,6.1-4.8,8.9-7.5
	c0.8-0.8,1.9-1.3,3.1-1.3h60.3c0.8,0,1.1,0.7,0.8,1.4c-31.3,51.6-77.3,69-135.4,58.3c-53.1-11.2-84.7-56.2-83.1-113.1
	C1012.9,284.6,1022.5,254.7,1042.3,234.1z M1124.5,248.4c-17.8-0.4-35.1,7.7-45.1,22.6l0,0l-0.2,0.3c-2.1,3.2-3.9,6.6-5.3,10.2
	c-0.7,2,0.3,4.3,2.4,5c0.5,0.2,1,0.2,1.4,0.2c8.4,0,17.9,0,30,0h65.4c0.8,0.1,1.5-0.4,1.6-1.2c0-0.2,0-0.5-0.1-0.7
	C1167.8,262.1,1150.5,248.4,1124.5,248.4L1124.5,248.4z"/>
<path class="st0" d="M1459.8,234.1c31-33.6,86.4-39.1,127.6-22.8c45,18.3,62.9,64.9,60.4,113.1c-0.1,2.2-2,4-4.2,4h-155.3
	c-0.9-0.1-1.8,0.6-1.9,1.5c0,0.2,0,0.3,0,0.5c2.3,27.6,21.2,50.6,49.2,53.6c13.8,1.8,30.5-0.8,40.4-7.9c3.1-2.3,6.1-4.8,8.9-7.5
	c0.8-0.8,1.9-1.3,3.1-1.3h60.3c0.5,0,0.9,0.4,0.9,0.9c0,0.2,0,0.4-0.2,0.5c-31.3,51.6-77.3,69-135.4,58.3
	c-53.1-11.2-84.7-56.2-83.2-113.1C1430.4,284.6,1440,254.7,1459.8,234.1z M1542,248.4c-17.8-0.4-35.1,7.7-45,22.6l0,0l-0.2,0.3
	c-2.1,3.2-3.9,6.6-5.3,10.2c-0.7,2,0.3,4.2,2.3,5c0.5,0.2,1,0.3,1.5,0.2c8.4,0,17.9,0,30,0h65.4c0.8,0.1,1.5-0.4,1.6-1.2
	c0-0.2,0-0.5-0.1-0.7C1585.3,262.1,1568,248.4,1542,248.4L1542,248.4z"/>
<path class="st0" d="M666.4,76.7c39.1-0.5,87,26.1,99.4,72.9c0.6,2.2-0.8,4.4-3,5c-0.3,0.1-0.7,0.1-1,0.1H719
	c-1.4,0-2.8-0.7-3.6-1.9c-5.4-8-11-14.9-19.2-19.8c-17.9-10.4-49.8-9.1-66.4,5.5c-9.1,7.4-14,17-14.2,28.1
	c-0.2,16.8,11.7,29,35.6,39.2c5.6,2.3,34,13.2,38.7,15.1l0,0l0,0l0.2,0.1c43.4,17.7,72.9,37.6,81.9,80.3c6,32.3-2.6,68.1-25.6,91.9
	c-51.3,56.9-161.1,47.3-191.7-24.9c-4.8-10.5-8.3-21.6-10.4-32.9c-0.4-2.3,1.1-4.4,3.4-4.8c0.3,0,0.5-0.1,0.8-0.1h49.2
	c2.1,0,3.8,1.5,4.2,3.5c2.5,11.8,5.7,19.8,11.5,26.7c25,31,83.3,25.6,99.6-11.9c8.1-18.2,6.8-42-6.8-56.9
	c-18.2-20-47.7-27.2-72.6-37.8c-56.2-21.1-88.3-64-68.8-117.2C580.6,97.9,624.9,76,666.4,76.7z"/>
</svg>
